# xmcd
#
# Track frame offsets:
#	187
#	16787
#	27282
#	42900
#	60515
#	77587
#	86612
#	99942
#	116792
#	133882
#	154595
#	171477
#	186432
#	197887
#	213225
#	226350
#
# Disc length: 3201
#
# Revision: 2
# Processed by: cddbd v1.5.1PL0 Copyright (c) Steve Scherf et al.
# Submitted via: CDex 1.50beta10
# Normalized: r0:DSETVAR1,TSWAP
#
DISCID=d20c7f10
DTITLE=Various Artist - STELLA BY STARLIGHT PIANO WITH STRINGS
DYEAR=1900
DGENRE=Jazz
TTITLE0=OSCAR PETERSON - STARS FELL ON ALABAMA
TTITLE1=OSCAR PETERSON - I THOUGHT ABOUT YOU
TTITLE2=OSCAR PETERSON - STELLA BY STARLIGHT
TTITLE3=OSCAR PETERSON - TENDERLY
TTITLE4=OSCAR PETERSON - IT COULD HAPPEN TO YOU
TTITLE5=OSCAR PETERSON - YOU TOOK ADVANTAGE OF ME
TTITLE6=OSCAR PETERSON - I CAN'T GET STARTED
TTITLE7=PAUL SMITH - ANGEL EYES
TTITLE8=PAUL SMITH - IT MIGHT AS WELL BE SPRING
TTITLE9=GEORGE WALLINGTON - MY FUNNY VALENTINE
TTITLE10=GEORGE WALLINGTON - AUTUMN IN NEW YORK
TTITLE11=GEORGE WALLINGTON - INVITATION
TTITLE12=GEORGE WALLINGTON - ALONE TOGETHER
TTITLE13=GEORGE WALLINGTON - MOONLIGHT IN VERMONT
TTITLE14=TEDDY WILSON - SAYONARA
TTITLE15=TEDDY WILSON - SANDS OF TIME
EXTD=
EXTT0=
EXTT1=
EXTT2=
EXTT3=
EXTT4=
EXTT5=
EXTT6=
EXTT7=
EXTT8=
EXTT9=
EXTT10=
EXTT11=
EXTT12=
EXTT13=
EXTT14=
EXTT15=
PLAYORDER=
